# xmcd
#
# Track frame offsets:
#	150
#	10684
#	22016
#	36433
#	47350
#	61467
#	72467
#	80726
#	90957
#	102040
#	114956
#	130084
#	139918
#	150723
#	164207
#	178308
#	191423
#	205484
#	215029
#	227234
#	235918
#	246859
#	257386
#	269313
#	281512
#
# Disc length: 3925 seconds
#
# Revision: 1
# Processed by: cddbd v1.5.2PL0 Copyright (c) Steve Scherf et al.
# Submitted via: audiograbber 1.83.01
#
DISCID=6a0f5319
DTITLE=Various Artist - Blues - Atlas Blues Explosion
DYEAR=1951
DGENRE=Blues
TTITLE0=Louisiana Red - I Done Woke Up
TTITLE1=Mojo Watson - You Know You Don't Want Me
TTITLE2=H-Bomb Ferguson - On My Way
TTITLE3=James Wayne - This Little Letter
TTITLE4=Charlie Walker - Down Hearted Blues
TTITLE5=H-Bomb Ferguson - Good Time Gal
TTITLE6=Jimmy Chickie Horne - Hello Little Girl
TTITLE7=Hattie Green - Over Twenty One
TTITLE8=Piney Brown - You Made Me This Way
TTITLE9=Mae Mercer - Sweet Little Angel
TTITLE10=Johnny Perry Orchestra - I Left My Baby
TTITLE11=H-Bomb Ferguson - Rock H-Bomb Rock
TTITLE12=Hattie Green - Green Light Baby
TTITLE13=Charlie Walker - Nervous Wreck
TTITLE14=Emmet Davis - Woke Up This Morning
TTITLE15=Johnny Perry Orchestra - Lonely Heart Blues
TTITLE16=Mojo Watson - All Alone
TTITLE17=Mae Mercer - Great Gooda Mooga
TTITLE18=Charlie Walker - Wrong Kind Of Woman
TTITLE19=Louisiana Red - I Had A Feeling
TTITLE20=Hattie Green - Pawn Shop Blues
TTITLE21=James Wayne - The Trust
TTITLE22=Emmet Davis - You Know You Didn't Want Me
TTITLE23=Charlie Walker - Louise
TTITLE24=H-Bomb Ferguson - I Love My Baby
EXTD=YEAR: 2006
EXTT0=
EXTT1=
EXTT2=
EXTT3=
EXTT4=
EXTT5=
EXTT6=
EXTT7=
EXTT8=
EXTT9=
EXTT10=
EXTT11=
EXTT12=
EXTT13=
EXTT14=
EXTT15=
EXTT16=
EXTT17=
EXTT18=
EXTT19=
EXTT20=
EXTT21=
EXTT22=
EXTT23=
EXTT24=
PLAYORDER=
